<svg xmlns="http://www.w3.org/2000/svg" viewBox="0 0 32 32">
  <!-- Background circle -->
  <circle cx="16" cy="16" r="15" fill="#f8fafc" stroke="#e2e8f0" stroke-width="1"/>
  
  <!-- Color palette segments -->
  <path d="M16 1 A15 15 0 0 1 31 16 L16 16 Z" fill="#fbbf24"/>
  <path d="M31 16 A15 15 0 0 1 28.5 22.5 L16 16 Z" fill="#84cc16"/>
  <path d="M28.5 22.5 A15 15 0 0 1 22.5 28.5 L16 16 Z" fill="#10b981"/>
  <path d="M22.5 28.5 A15 15 0 0 1 16 31 L16 16 Z" fill="#06b6d4"/>
  <path d="M16 31 A15 15 0 0 1 9.5 28.5 L16 16 Z" fill="#3b82f6"/>
  <path d="M9.5 28.5 A15 15 0 0 1 3.5 22.5 L16 16 Z" fill="#8b5cf6"/>
  <path d="M3.5 22.5 A15 15 0 0 1 1 16 L16 16 Z" fill="#ec4899"/>
  <path d="M1 16 A15 15 0 0 1 3.5 9.5 L16 16 Z" fill="#ef4444"/>
  <path d="M3.5 9.5 A15 15 0 0 1 9.5 3.5 L16 16 Z" fill="#f59e0b"/>
  <path d="M9.5 3.5 A15 15 0 0 1 16 1 L16 16 Z" fill="#f97316"/>
  
  <!-- Center circle -->
  <circle cx="16" cy="16" r="6" fill="white" stroke="#e2e8f0" stroke-width="1"/>
</svg>
